HIERARCHY
ROOT hip
{
	OFFSET 0.000000 0.000000 0.000000
	CHANNELS 6 Xposition Yposition Zposition Xrotation Zrotation Yrotation 
	JOINT abdomen
	{
		OFFSET 0.000000 3.422050 0.000000
		CHANNELS 3 Xrotation Zrotation Yrotation 
		JOINT chest
		{
			OFFSET 0.000000 8.486693 -0.684411
			CHANNELS 3 Xrotation Zrotation Yrotation 
			JOINT neck
			{
				OFFSET 0.000000 10.266162 -0.273764
				CHANNELS 3 Xrotation Zrotation Yrotation 
				JOINT head
				{
					OFFSET 0.000000 3.148285 0.000000
					CHANNELS 3 Xrotation Zrotation Yrotation 
					End Site
					{
						OFFSET 0.000000 3.148289 0.000000
					}
				}
			}
			JOINT lCollar
			{
				OFFSET 3.422053 6.707223 -0.821293
				CHANNELS 3 Yrotation Zrotation Xrotation 
				JOINT lShldr
				{
					OFFSET 3.285171 0.000000 0.000000
					CHANNELS 3 Zrotation Yrotation Xrotation 
					JOINT lForeArm
					{
						OFFSET 10.129278 0.000000 0.000000
						CHANNELS 3 Yrotation Zrotation Xrotation 
						JOINT lHand
						{
							OFFSET 8.486692 0.000000 0.000000
							CHANNELS 3 Zrotation Yrotation Xrotation 
							End Site
							{
								OFFSET 4.106464 0.000000 0.000000
							}
						}
					}
				}
			}
			JOINT rCollar
			{
				OFFSET -3.558935 6.707223 -0.821293
				CHANNELS 3 Yrotation Zrotation Xrotation 
				JOINT rShldr
				{
					OFFSET -3.148289 0.000000 0.000000
					CHANNELS 3 Zrotation Yrotation Xrotation 
					JOINT rForeArm
					{
						OFFSET -10.266159 0.000000 0.000000
						CHANNELS 3 Yrotation Zrotation Xrotation 
						JOINT rHand
						{
							OFFSET -8.349810 0.000000 0.000000
							CHANNELS 3 Zrotation Yrotation Xrotation 
							End Site
							{
								OFFSET -4.106464 0.000000 0.000000
							}
						}
					}
				}
			}
		}
	}
	JOINT lThigh
	{
		OFFSET 5.338403 -1.642589 1.368821
		CHANNELS 3 Xrotation Zrotation Yrotation 
		JOINT lShin
		{
			OFFSET -2.053232 -20.121670 0.000000
			CHANNELS 3 Xrotation Zrotation Yrotation 
			JOINT lFoot
			{
				OFFSET 0.000000 -19.300380 -1.231939
				CHANNELS 3 Xrotation Yrotation Zrotation 
				End Site
				{
					OFFSET 0.000000 -2.463878 4.653993
				}
			}
		}
	}
	JOINT rThigh
	{
		OFFSET -5.338403 -1.642589 1.368821
		CHANNELS 3 Xrotation Zrotation Yrotation 
		JOINT rShin
		{
			OFFSET 2.053232 -20.121670 0.000000
			CHANNELS 3 Xrotation Zrotation Yrotation 
			JOINT rFoot
			{
				OFFSET 0.000000 -19.300380 -1.231939
				CHANNELS 3 Xrotation Yrotation Zrotation 
				End Site
				{
					OFFSET 0.000000 -2.463878 4.653993
				}
			}
		}
	}
}
MOTION
Frames: 11
Frame Time: 0.033264
0.000000 43.528500 0.000000 0.000000 0.000000 0.000000 0.000000 0.000000 0.000000 0.000000 0.000000 0.000000 0.000000 0.000000 0.000000 0.000000 0.000000 0.000000 0.000000 0.000000 0.000000 0.000000 0.000000 0.000000 0.000000 0.000000 0.000000 0.000000 0.000000 0.000000 0.000000 0.000000 0.000000 0.000000 0.000000 0.000000 0.000000 0.000000 0.000000 0.000000 0.000000 0.000000 0.000000 0.000000 0.000000 0.000000 0.000000 0.000000 0.000000 0.000000 0.000000 0.000000 0.000000 0.000000 0.000000 0.000000 0.000000 0.000000 0.000000 0.000000 
-1.775203 10.262100 -0.928161 0.000000 0.000000 0.000000 0.409810 5.301082 -28.583454 4.349452 0.565062 1.941117 -16.002113 20.996943 -0.001972 -7.000641 -0.001453 -23.003128 -32.230694 -17.362076 -7.728356 -18.129942 -51.538960 8.367727 -67.555214 -13.465514 -12.309601 8.671041 -24.653429 -2.854869 26.176428 -10.228523 2.169597 -13.018031 -8.179990 1.974072 111.167122 -6.643523 0.277618 19.283709 -0.351048 -70.790558 -91.101273 23.475851 29.989803 53.272572 -30.055992 -0.743477 25.283073 -2.142293 2.604528 -103.128281 -5.430166 -0.167126 48.364189 2.305078 0.113071 25.283028 2.138117 -2.607185 
-1.775203 10.262100 -0.928161 0.000000 0.000000 0.000000 0.409810 5.301082 -28.583454 4.349452 0.565062 1.941117 -15.961461 20.794884 0.054319 -6.971782 -0.421001 -22.870872 -32.230694 -17.362076 -7.728356 -18.129942 -51.538960 8.367727 -67.732788 -13.311622 -12.279341 8.671041 -24.653429 -2.854869 26.176430 -10.228523 2.169597 -13.018031 -8.179990 1.974072 111.167130 -6.643523 0.277618 18.771290 -0.396344 -70.705513 -91.101273 23.475851 29.989803 53.272572 -30.055992 -0.743478 25.283073 -2.142293 2.604528 -103.128281 -5.430166 -0.167126 48.364189 2.305078 0.113071 25.283028 2.138117 -2.607185 
-1.775203 10.262100 -0.928161 0.000000 0.000000 0.000000 0.409810 5.301082 -28.583454 4.349452 0.565062 1.941117 -15.921063 20.592745 0.110392 -6.943864 -0.840974 -22.738705 -32.230694 -17.362076 -7.728356 -18.129942 -51.538960 8.367727 -67.910408 -13.157736 -12.248590 8.671041 -24.653429 -2.854869 26.176430 -10.228524 2.169598 -13.018031 -8.179990 1.974072 111.167122 -6.643523 0.277618 18.257545 -0.440986 -70.619850 -91.101273 23.475851 29.989803 53.272572 -30.055992 -0.743477 25.283073 -2.142293 2.604528 -103.128281 -5.430166 -0.167126 48.364193 2.305078 0.113070 25.283028 2.138117 -2.607185 
-1.775203 10.262100 -0.928161 0.000000 0.000000 0.000000 0.409810 5.301082 -28.583454 4.349452 0.565062 1.941117 -15.880926 20.390537 0.166250 -6.916889 -1.261356 -22.606615 -32.230698 -17.362076 -7.728356 -18.129944 -51.538967 8.367727 -68.088104 -13.003875 -12.217359 8.671041 -24.653429 -2.854869 26.176430 -10.228523 2.169597 -13.018031 -8.179990 1.974072 111.167130 -6.643523 0.277618 17.742495 -0.484963 -70.533577 -91.101273 23.475849 29.989803 53.272572 -30.055992 -0.743478 25.283073 -2.142293 2.604528 -103.128281 -5.430166 -0.167126 48.364189 2.305078 0.113071 25.283028 2.138117 -2.607185 
-1.775203 10.262100 -0.928161 0.000000 0.000000 0.000000 0.409810 5.301082 -28.583454 4.349452 0.565062 1.941117 -15.841044 20.188257 0.221894 -6.890860 -1.682135 -22.474596 -32.230698 -17.362078 -7.728356 -18.129944 -51.538967 8.367729 -68.265846 -12.850030 -12.185636 8.671041 -24.653429 -2.854869 26.176428 -10.228523 2.169597 -13.018031 -8.179990 1.974072 111.167122 -6.643523 0.277618 17.226152 -0.528264 -70.446709 -91.101288 23.475853 29.989803 53.272572 -30.055992 -0.743477 25.283073 -2.142293 2.604528 -103.128281 -5.430166 -0.167126 48.364189 2.305078 0.113071 25.283030 2.138117 -2.607185 
-1.775203 10.262100 -0.928161 0.000000 0.000000 0.000000 0.409810 5.301082 -28.583456 4.349453 0.565062 1.941117 -15.801414 19.985905 0.277325 -6.865776 -2.103296 -22.342632 -32.230698 -17.362076 -7.728356 -18.129944 -51.538960 8.367728 -68.443649 -12.696212 -12.153430 8.671041 -24.653429 -2.854869 26.176430 -10.228523 2.169597 -13.018032 -8.179990 1.974072 111.167130 -6.643524 0.277618 16.708540 -0.570878 -70.359253 -91.101288 23.475853 29.989807 53.272575 -30.055996 -0.743477 25.283073 -2.142293 2.604528 -103.128281 -5.430167 -0.167126 48.364197 2.305078 0.113071 25.283030 2.138117 -2.607185 
-1.775203 10.262100 -0.928161 0.000000 0.000000 0.000000 0.409810 5.301082 -28.583452 4.349452 0.565062 1.941117 -15.762040 19.783484 0.332546 -6.841637 -2.524822 -22.210714 -32.230690 -17.362074 -7.728355 -18.129940 -51.538956 8.367727 -68.621529 -12.542420 -12.120740 8.671039 -24.653425 -2.854868 26.176426 -10.228522 2.169597 -13.018030 -8.179990 1.974072 111.167114 -6.643522 0.277618 16.189680 -0.612795 -70.271217 -91.101273 23.475851 29.989803 53.272564 -30.055992 -0.743476 25.283072 -2.142293 2.604528 -103.128281 -5.430165 -0.167126 48.364189 2.305078 0.113070 25.283026 2.138117 -2.607184 
-1.775203 10.262100 -0.928161 0.000000 0.000000 0.000000 0.409810 5.301082 -28.583452 4.349452 0.565062 1.941117 -15.722915 19.580997 0.387558 -6.818448 -2.946704 -22.078846 -32.230694 -17.362074 -7.728356 -18.129940 -51.538956 8.367727 -68.799469 -12.388663 -12.087568 8.671041 -24.653429 -2.854869 26.176428 -10.228523 2.169597 -13.018031 -8.179990 1.974072 111.167122 -6.643523 0.277618 15.669575 -0.654006 -70.182579 -91.101273 23.475847 29.989799 53.272572 -30.055988 -0.743477 25.283070 -2.142293 2.604528 -103.128281 -5.430166 -0.167126 48.364189 2.305078 0.113071 25.283026 2.138117 -2.607185 
-1.775203 10.262100 -0.928161 0.000000 0.000000 0.000000 0.409810 5.301082 -28.583454 4.349452 0.565062 1.941117 -15.684035 19.378441 0.442364 -6.796206 -3.368922 -21.946999 -32.230694 -17.362074 -7.728356 -18.129938 -51.538948 8.367726 -68.977478 -12.234934 -12.053910 8.671041 -24.653429 -2.854869 26.176428 -10.228523 2.169597 -13.018031 -8.179990 1.974072 111.167122 -6.643522 0.277618 15.148258 -0.694498 -70.093391 -91.101273 23.475847 29.989803 53.272564 -30.055992 -0.743476 25.283073 -2.142293 2.604528 -103.128281 -5.430166 -0.167126 48.364189 2.305078 0.113071 25.283028 2.138117 -2.607185 
-1.775203 10.262100 -0.928161 0.000000 0.000000 0.000000 0.409810 5.301082 -28.583454 4.349452 0.565062 1.941117 -15.645404 19.175817 0.496964 -6.774913 -3.791465 -21.815168 -32.230694 -17.362076 -7.728356 -18.129942 -51.538960 8.367727 -69.155548 -12.081243 -12.019768 8.671041 -24.653429 -2.854869 26.176428 -10.228523 2.169597 -13.018031 -8.179990 1.974072 111.167122 -6.643523 0.277618 14.625746 -0.734261 -70.003647 -91.101273 23.475847 29.989803 53.272572 -30.055992 -0.743477 25.283070 -2.142293 2.604528 -103.128281 -5.430166 -0.167126 48.364189 2.305078 0.113071 25.283026 2.138117 -2.607185 
